<svg xmlns="http://www.w3.org/2000/svg" viewBox="0 0 960 600" role="img" aria-label="Inventory UX planning thumbnail">
  <rect width="960" height="600" fill="#f2f5f7"/>
  <rect x="82" y="70" width="796" height="460" rx="18" fill="#ffffff" stroke="#cfd7df"/>
  <text x="122" y="140" fill="#263747" font-family="Arial, sans-serif" font-size="36" font-weight="700">Inventory UX Improvement</text>
  <rect x="122" y="184" width="210" height="292" rx="14" fill="#edf1f5" stroke="#cfd7df"/>
  <g fill="#ffffff" stroke="#cfd7df" stroke-width="4">
    <rect x="372" y="184" width="92" height="92" rx="12"/>
    <rect x="486" y="184" width="92" height="92" rx="12"/>
    <rect x="600" y="184" width="92" height="92" rx="12"/>
    <rect x="714" y="184" width="92" height="92" rx="12"/>
    <rect x="372" y="298" width="92" height="92" rx="12"/>
    <rect x="486" y="298" width="92" height="92" rx="12"/>
    <rect x="600" y="298" width="92" height="92" rx="12"/>
    <rect x="714" y="298" width="92" height="92" rx="12"/>
  </g>
  <rect x="152" y="220" width="150" height="18" rx="9" fill="#8393a3"/>
  <rect x="152" y="262" width="120" height="18" rx="9" fill="#aab5bf"/>
  <rect x="152" y="304" width="136" height="18" rx="9" fill="#aab5bf"/>
</svg>
